<svg xmlns="http://www.w3.org/2000/svg" version="1.1" xmlns:xlink="http://www.w3.org/1999/xlink" xmlns:svgjs="http://svgjs.com/svgjs" width="1000" height="1000"><rect width="1000" height="1000" rx="200" ry="200" fill="#dedede"></rect><g transform="matrix(2.05761316872428,0,0,2.05761316872428,0.3814756605360117,186.1541126098162)"><svg xmlns="http://www.w3.org/2000/svg" version="1.1" xmlns:xlink="http://www.w3.org/1999/xlink" xmlns:svgjs="http://svgjs.com/svgjs" width="486" height="305"><svg viewBox="0 0 486 305" width="486" height="305" xmlns="http://www.w3.org/2000/svg">
  <path style="fill:#000000; stroke:none;" d="M 453.905 27.838 C 457.387 32.852 455.13 39.694 458.238 43.838 C 463.141 50.375 486.497 63.498 482.905 72.838 C 480.289 79.639 470.113 91.033 466.571 91.838 C 464.187 92.38 463.594 97.115 460.405 97.338 C 458.622 97.462 461.423 93.897 459.905 93.338 C 457.152 92.324 449.375 93.958 447.405 96.005 C 444.961 98.543 445.211 109.771 449.238 111.005 C 451.082 111.57 454.408 108.46 455.738 109.505 C 457.109 110.582 450.887 119.522 449.905 120.505 C 443.393 127.017 434.633 120.27 430.238 115.171 C 429.593 114.423 424.82 108.673 424.071 110.171 C 423.186 111.942 428.32 122.363 428.905 124.838 C 431.698 136.67 432.395 149.886 429.905 161.838 C 428.25 169.78 425.191 178.186 420.571 184.838 C 419.915 185.784 415.996 191.778 414.738 191.171 C 413.314 190.484 416.487 162.09 411.571 176.838 C 411.124 178.18 410.674 179.563 410.071 180.838 C 409.292 182.488 407.946 184.066 407.405 185.838 C 405.487 192.113 418.277 204.174 421.905 208.838 C 429.742 218.914 438.424 228.308 441.905 240.838 C 443.504 246.597 441.573 253.427 443.405 258.838 C 446.012 266.542 455.142 273.291 447.905 282.838 C 440.758 292.266 427.566 276.592 424.405 270.838 C 418.514 260.114 420.856 245.839 412.905 237.005 C 407.197 230.663 394.968 228.511 387.238 225.505 C 383.603 224.091 371.884 217.061 368.405 218.505 C 365.482 219.718 364.614 230.001 363.905 232.838 C 360.63 245.936 354.77 268.62 364.738 279.671 C 368.161 283.467 376.072 282.736 380.238 286.838 C 383.181 289.736 390.024 298.01 383.238 300.505 C 378.57 302.221 371.187 300.838 366.238 300.838 C 360.254 300.838 348.21 302.933 343.405 298.505 C 340.27 295.616 342.487 290.36 340.905 286.838 C 339.681 284.113 336.719 283.461 335.571 280.838 C 329.823 267.699 332.269 249.932 327.571 235.838 C 326.257 231.896 324.27 219.596 321.071 217.338 C 315.612 213.484 298.521 217.227 292.238 217.838 C 274.752 219.538 257.223 215.807 240.238 212.505 C 232.37 210.975 221.208 206.293 213.238 207.338 C 209.343 207.849 208.287 224.307 207.405 227.838 C 205.273 236.364 200.542 250.114 203.571 258.838 C 205.98 265.775 216.946 272.525 223.238 275.671 C 229.184 278.644 236.965 275.729 242.238 279.171 C 246.04 281.653 253.375 292.383 247.238 296.005 C 239.304 300.687 231.789 295.029 224.238 294.505 C 220.756 294.263 217.962 296.436 214.238 295.505 C 205.583 293.341 194.025 281.696 186.238 276.505 C 181.244 273.176 170.757 267.757 168.571 261.838 C 166.489 256.198 170.707 250.297 171.238 244.838 C 172.17 235.252 168.011 227.379 164.571 218.838 C 163.886 217.136 162.394 209.266 160.738 208.671 C 157.724 207.59 143.95 216.882 140.238 218.171 C 126.633 222.895 115.816 230.858 103.238 237.671 C 89.51 245.108 75.954 250.191 74.238 267.838 C 73.849 271.836 71.476 280.378 74.571 283.671 C 78.75 288.116 94.6 287.509 91.071 298.838 C 89.844 302.778 67.995 302.444 64.238 301.505 C 60.188 300.492 59.764 297.725 57.071 295.171 C 45.155 283.872 51.72 262.456 53.238 246.838 C 53.735 241.728 52.222 230.959 56.405 227.171 C 58.942 224.874 63.376 224.492 66.238 222.505 C 71.096 219.131 74.739 213.388 78.405 208.838 C 79.627 207.321 84.309 203.161 84.238 201.171 C 84.324 203.602 68.301 211.399 65.238 212.505 C 47.544 218.894 24.874 217.067 11.238 202.838 C 7.972 199.43 0.141 190.393 2.404 185.005 C 4.466 180.096 19.05 190.44 21.238 192.171 C 25.375 195.447 28.065 200.481 32.238 203.505 C 42.272 210.776 57.856 205.855 66.238 198.505 C 74.656 191.122 80.79 180.299 86.571 170.838 C 100.189 148.555 120.39 120.18 145.238 110.171 C 167.013 101.401 194.287 101.607 217.238 103.838 C 226.209 104.71 244.916 109.68 253.238 105.338 C 257.783 102.967 262.322 96.373 266.238 92.838 C 271.486 88.1 280.818 84.629 284.738 78.838 C 289.141 72.333 290.624 65.407 297.238 60.171 C 301.782 56.574 306.751 54 312.238 52.171 C 312.746 52.002 317.238 50.925 317.238 50.505 C 317.238 47.662 301.477 53.107 301.905 51.671 C 303.778 45.381 317.842 37.894 323.238 34.671 C 343.76 22.415 360.102 8.864 384.238 4.171 C 407.095 -0.273 440.13 8.002 453.905 27.838 Z M 383.238 14.171 C 376.53 15.475 369.872 15.719 363.238 17.838 C 362.614 18.037 356.501 20.101 356.905 20.504 C 358.149 21.749 367.256 18.948 369.238 18.838 C 382.127 18.122 393.517 17.824 406.238 21.004 C 408.071 21.463 423.224 26.958 423.571 26.338 C 424.632 24.443 416.478 20.624 415.238 20.004 C 406.538 15.654 392.96 12.281 383.238 14.171 Z M 319.21 59.287 L 300.238 67.713 L 293.932 73.801 L 315.238 63.083 L 321.872 59.708 L 319.21 59.287 Z M 275.915 116.798 C 274.325 118.058 276.971 122.47 274.497 123.168 C 272.826 123.639 270.546 123.247 268.813 123.247 C 264.594 123.247 260.369 123.21 256.152 123.25 C 254.348 123.267 250.877 122.616 249.656 124.276 C 247.699 126.937 246.84 131.331 245.683 134.42 C 242.836 142.027 240.116 149.688 237.202 157.262 C 236.182 159.91 235.154 162.545 234.169 165.207 C 233.72 166.424 232.869 167.836 233.038 169.18 C 233.327 171.476 236.72 173.696 238.522 174.834 C 245.128 179.003 252.641 179.895 259.875 176.899 C 262.794 175.69 268.275 172.901 269.364 169.677 C 270.115 167.454 267.369 162.598 266.511 160.49 C 263.456 152.984 260.615 145.294 257.93 137.648 C 257.108 135.308 256.143 133.025 255.289 130.695 C 254.995 129.894 254.292 128.617 254.586 127.752 C 255.032 126.438 258.057 126.971 259.13 126.971 L 269.31 126.971 C 270.842 126.971 272.781 126.653 274.265 127.05 C 276.204 127.569 275.517 131.174 275.517 132.682 L 275.517 174.146 C 275.517 176.449 276.442 181.302 275.262 183.296 C 274.705 184.236 273.472 184.077 272.538 184.077 L 265.337 184.077 C 264.104 184.077 262.269 183.738 261.967 185.329 C 261.787 186.275 261.56 189.615 262.486 190.138 C 264.313 191.172 268.231 190.285 270.303 190.285 L 286.938 190.285 C 289.094 190.285 292.062 190.926 294.102 190.215 C 295.428 189.754 295.344 184.796 294.082 184.227 C 291.949 183.265 287.787 184.077 285.448 184.077 C 284.51 184.077 283.075 184.332 282.3 183.679 C 281.572 183.066 281.725 181.945 281.724 181.098 L 281.724 131.688 C 281.724 130.404 281.256 127.755 282.75 127.121 C 284.9 126.209 288.829 126.971 291.159 126.971 L 299.601 126.971 C 300.392 126.971 302.025 126.671 302.593 127.369 C 303.2 128.117 302.442 129.453 302.163 130.199 C 301.166 132.846 300.233 135.516 299.181 138.144 C 296.39 145.117 293.886 152.219 291.238 159.248 C 290.164 162.097 287.908 165.873 287.839 168.932 C 287.782 171.485 292.029 173.845 293.89 175.053 C 301.789 180.181 311.492 179.722 319.216 174.513 C 320.847 173.413 323.765 171.474 324.187 169.428 C 324.757 166.668 321.92 161.794 320.881 159.248 C 317.785 151.66 315.045 143.862 312.245 136.158 C 311.156 133.161 309.967 130.198 308.838 127.219 C 308.442 126.172 308.188 124.45 307.2 123.784 C 305.609 122.712 302.169 123.256 300.346 123.247 C 294.792 123.22 288.45 124.131 282.98 123.21 C 280.448 122.784 282.596 118.509 281.714 117.119 C 281.119 116.182 279.185 116.543 278.248 116.543 C 277.579 116.543 276.479 116.351 275.915 116.798 Z M 255.257 141.372 C 257.223 147.145 259.873 152.707 261.785 158.504 C 262.446 160.511 263.204 162.494 263.982 164.462 C 264.222 165.07 264.788 166.134 264.328 166.761 C 263.6 167.751 260.238 167.194 259.13 167.194 L 243.736 167.194 C 242.645 167.194 238.362 167.803 237.869 166.618 C 237.561 165.881 238.365 164.646 238.627 163.966 C 239.483 161.738 240.222 159.464 241.145 157.262 C 244.719 148.739 246.891 139.387 251.185 131.192 C 253.332 133.453 254.255 138.427 255.257 141.372 Z M 309.618 139.882 C 311.793 146.033 314.146 152.168 316.5 158.255 C 317.299 160.323 318.074 162.398 318.882 164.462 C 319.121 165.072 319.764 166.177 319.268 166.796 C 318.497 167.757 315.133 167.194 314.002 167.194 L 298.608 167.194 C 297.548 167.194 293.274 167.791 292.842 166.589 C 292.561 165.808 293.21 164.675 293.479 163.966 L 296.011 157.262 C 299.306 148.613 302.129 139.689 305.808 131.192 C 307.89 133.121 308.686 137.245 309.618 139.882 Z"></path>
</svg></svg></g></svg>