<?xml version="1.0" encoding="utf-8"?>
<svg viewBox="0 0 519 509" width="519" height="509" xmlns="http://www.w3.org/2000/svg">
  <ellipse style="stroke: rgb(0, 0, 0);" cx="250" cy="250" rx="256.188" ry="251.253" transform="matrix(0.999919, -0.012759, 0.013266, 0.999912, 6.203849, 7.711716)"/>
  <path style="stroke: none; fill: rgb(255, 255, 255);" d="M 464.766 129.781 C 468.248 134.795 465.991 141.637 469.099 145.781 C 474.002 152.318 497.358 165.441 493.766 174.781 C 491.15 181.582 480.974 192.976 477.432 193.781 C 475.048 194.323 474.455 199.058 471.266 199.281 C 469.483 199.405 472.284 195.84 470.766 195.281 C 468.013 194.267 460.236 195.901 458.266 197.948 C 455.822 200.486 456.072 211.714 460.099 212.948 C 461.943 213.513 465.269 210.403 466.599 211.448 C 467.97 212.525 461.748 221.465 460.766 222.448 C 454.254 228.96 445.494 222.213 441.099 217.114 C 440.454 216.366 435.681 210.616 434.932 212.114 C 434.047 213.885 439.181 224.306 439.766 226.781 C 442.559 238.613 443.256 251.829 440.766 263.781 C 439.111 271.723 436.052 280.129 431.432 286.781 C 430.776 287.727 426.857 293.721 425.599 293.114 C 424.175 292.427 427.348 264.033 422.432 278.781 C 421.985 280.123 421.535 281.506 420.932 282.781 C 420.153 284.431 418.807 286.009 418.266 287.781 C 416.348 294.056 429.138 306.117 432.766 310.781 C 440.603 320.857 449.285 330.251 452.766 342.781 C 454.365 348.54 452.434 355.37 454.266 360.781 C 456.873 368.485 466.003 375.234 458.766 384.781 C 451.619 394.209 438.427 378.535 435.266 372.781 C 429.375 362.057 431.717 347.782 423.766 338.948 C 418.058 332.606 405.829 330.454 398.099 327.448 C 394.464 326.034 382.745 319.004 379.266 320.448 C 376.343 321.661 375.475 331.944 374.766 334.781 C 371.491 347.879 365.631 370.563 375.599 381.614 C 379.022 385.41 386.933 384.679 391.099 388.781 C 394.042 391.679 400.885 399.953 394.099 402.448 C 389.431 404.164 382.048 402.781 377.099 402.781 C 371.115 402.781 359.071 404.876 354.266 400.448 C 351.131 397.559 353.348 392.303 351.766 388.781 C 350.542 386.056 347.58 385.404 346.432 382.781 C 340.684 369.642 343.13 351.875 338.432 337.781 C 337.118 333.839 335.131 321.539 331.932 319.281 C 326.473 315.427 309.382 319.17 303.099 319.781 C 285.613 321.481 268.084 317.75 251.099 314.448 C 243.231 312.918 232.069 308.236 224.099 309.281 C 220.204 309.792 219.148 326.25 218.266 329.781 C 216.134 338.307 211.403 352.057 214.432 360.781 C 216.841 367.718 227.807 374.468 234.099 377.614 C 240.045 380.587 247.826 377.672 253.099 381.114 C 256.901 383.596 264.236 394.326 258.099 397.948 C 250.165 402.63 242.65 396.972 235.099 396.448 C 231.617 396.206 228.823 398.379 225.099 397.448 C 216.444 395.284 204.886 383.639 197.099 378.448 C 192.105 375.119 181.618 369.7 179.432 363.781 C 177.35 358.141 181.568 352.24 182.099 346.781 C 183.031 337.195 178.872 329.322 175.432 320.781 C 174.747 319.079 173.255 311.209 171.599 310.614 C 168.585 309.533 154.811 318.825 151.099 320.114 C 137.494 324.838 126.677 332.801 114.099 339.614 C 100.371 347.051 86.815 352.134 85.099 369.781 C 84.71 373.779 82.337 382.321 85.432 385.614 C 89.611 390.059 105.461 389.452 101.932 400.781 C 100.705 404.721 78.856 404.387 75.099 403.448 C 71.049 402.435 70.625 399.668 67.932 397.114 C 56.016 385.815 62.581 364.399 64.099 348.781 C 64.596 343.671 63.083 332.902 67.266 329.114 C 69.803 326.817 74.237 326.435 77.099 324.448 C 81.957 321.074 85.6 315.331 89.266 310.781 C 90.488 309.264 95.17 305.104 95.099 303.114 C 95.185 305.545 79.162 313.342 76.099 314.448 C 58.405 320.837 35.735 319.01 22.099 304.781 C 18.833 301.373 11.002 292.336 13.265 286.948 C 15.327 282.039 29.911 292.383 32.099 294.114 C 36.236 297.39 38.926 302.424 43.099 305.448 C 53.133 312.719 68.717 307.798 77.099 300.448 C 85.517 293.065 91.651 282.242 97.432 272.781 C 111.05 250.498 131.251 222.123 156.099 212.114 C 177.874 203.344 205.148 203.55 228.099 205.781 C 237.07 206.653 255.777 211.623 264.099 207.281 C 268.644 204.91 273.183 198.316 277.099 194.781 C 282.347 190.043 291.679 186.572 295.599 180.781 C 300.002 174.276 301.485 167.35 308.099 162.114 C 312.643 158.517 317.612 155.943 323.099 154.114 C 323.607 153.945 328.099 152.868 328.099 152.448 C 328.099 149.605 312.338 155.05 312.766 153.614 C 314.639 147.324 328.703 139.837 334.099 136.614 C 354.621 124.358 370.963 110.807 395.099 106.114 C 417.956 101.67 450.991 109.945 464.766 129.781 Z M 394.099 116.114 C 387.391 117.418 380.733 117.662 374.099 119.781 C 373.475 119.98 367.362 122.044 367.766 122.447 C 369.01 123.692 378.117 120.891 380.099 120.781 C 392.988 120.065 404.378 119.767 417.099 122.947 C 418.932 123.406 434.085 128.901 434.432 128.281 C 435.493 126.386 427.339 122.567 426.099 121.947 C 417.399 117.597 403.821 114.224 394.099 116.114 Z M 330.071 161.23 L 311.099 169.656 L 304.793 175.744 L 326.099 165.026 L 332.733 161.651 L 330.071 161.23 Z M 286.776 218.741 C 285.186 220.001 287.832 224.413 285.358 225.111 C 283.687 225.582 281.407 225.19 279.674 225.19 C 275.455 225.19 271.23 225.153 267.013 225.193 C 265.209 225.21 261.738 224.559 260.517 226.219 C 258.56 228.88 257.701 233.274 256.544 236.363 C 253.697 243.97 250.977 251.631 248.063 259.205 C 247.043 261.853 246.015 264.488 245.03 267.15 C 244.581 268.367 243.73 269.779 243.899 271.123 C 244.188 273.419 247.581 275.639 249.383 276.777 C 255.989 280.946 263.502 281.838 270.736 278.842 C 273.655 277.633 279.136 274.844 280.225 271.62 C 280.976 269.397 278.23 264.541 277.372 262.433 C 274.317 254.927 271.476 247.237 268.791 239.591 C 267.969 237.251 267.004 234.968 266.15 232.638 C 265.856 231.837 265.153 230.56 265.447 229.695 C 265.893 228.381 268.918 228.914 269.991 228.914 L 280.171 228.914 C 281.703 228.914 283.642 228.596 285.126 228.993 C 287.065 229.512 286.378 233.117 286.378 234.625 L 286.378 276.089 C 286.378 278.392 287.303 283.245 286.123 285.239 C 285.566 286.179 284.333 286.02 283.399 286.02 L 276.198 286.02 C 274.965 286.02 273.13 285.681 272.828 287.272 C 272.648 288.218 272.421 291.558 273.347 292.081 C 275.174 293.115 279.092 292.228 281.164 292.228 L 297.799 292.228 C 299.955 292.228 302.923 292.869 304.963 292.158 C 306.289 291.697 306.205 286.739 304.943 286.17 C 302.81 285.208 298.648 286.02 296.309 286.02 C 295.371 286.02 293.936 286.275 293.161 285.622 C 292.433 285.009 292.586 283.888 292.585 283.041 L 292.585 233.631 C 292.585 232.347 292.117 229.698 293.611 229.064 C 295.761 228.152 299.69 228.914 302.02 228.914 L 310.462 228.914 C 311.253 228.914 312.886 228.614 313.454 229.312 C 314.061 230.06 313.303 231.396 313.024 232.142 C 312.027 234.789 311.094 237.459 310.042 240.087 C 307.251 247.06 304.747 254.162 302.099 261.191 C 301.025 264.04 298.769 267.816 298.7 270.875 C 298.643 273.428 302.89 275.788 304.751 276.996 C 312.65 282.124 322.353 281.665 330.077 276.456 C 331.708 275.356 334.626 273.417 335.048 271.371 C 335.618 268.611 332.781 263.737 331.742 261.191 C 328.646 253.603 325.906 245.805 323.106 238.101 C 322.017 235.104 320.828 232.141 319.699 229.162 C 319.303 228.115 319.049 226.393 318.061 225.727 C 316.47 224.655 313.03 225.199 311.207 225.19 C 305.653 225.163 299.311 226.074 293.841 225.153 C 291.309 224.727 293.457 220.452 292.575 219.062 C 291.98 218.125 290.046 218.486 289.109 218.486 C 288.44 218.486 287.34 218.294 286.776 218.741 Z M 266.118 243.315 C 268.084 249.088 270.734 254.65 272.646 260.447 C 273.307 262.454 274.065 264.437 274.843 266.405 C 275.083 267.013 275.649 268.077 275.189 268.704 C 274.461 269.694 271.099 269.137 269.991 269.137 L 254.597 269.137 C 253.506 269.137 249.223 269.746 248.73 268.561 C 248.422 267.824 249.226 266.589 249.488 265.909 C 250.344 263.681 251.083 261.407 252.006 259.205 C 255.58 250.682 257.752 241.33 262.046 233.135 C 264.193 235.396 265.116 240.37 266.118 243.315 Z M 320.479 241.825 C 322.654 247.976 325.007 254.111 327.361 260.198 C 328.16 262.266 328.935 264.341 329.743 266.405 C 329.982 267.015 330.625 268.12 330.129 268.739 C 329.358 269.7 325.994 269.137 324.863 269.137 L 309.469 269.137 C 308.409 269.137 304.135 269.734 303.703 268.532 C 303.422 267.751 304.071 266.618 304.34 265.909 L 306.872 259.205 C 310.167 250.556 312.99 241.632 316.669 233.135 C 318.751 235.064 319.547 239.188 320.479 241.825 Z"/>
</svg>